# Blender 4.4.0
# www.blender.org
mtllib Apple_2.mtl
o tgzpdhlpa_LOD0_TIER2_000
v -0.312957 -0.197309 0.226162
v -0.326690 0.305592 -0.099468
v -0.309607 -0.178332 -0.278347
v 0.018289 0.016757 -0.366200
v -0.019825 0.015078 0.250545
v 0.105507 0.383508 -0.163033
v -0.258079 -0.040347 -0.011423
v 0.080622 -0.372522 0.207464
v 0.411063 -0.005529 0.135082
v 0.064599 -0.238424 -0.408595
v 0.269335 0.091067 -0.374277
v -0.063433 0.288538 0.298801
vn 0.2686 0.9110 -0.3130
vn -0.7598 0.6109 -0.2228
vn -0.0766 0.5955 0.7997
vn 0.9221 -0.0207 0.3863
vn 0.1444 -0.5902 -0.7942
vn 0.6225 0.2183 -0.7516
vn -0.7211 -0.4065 0.5611
vn -0.9966 -0.0296 -0.0769
vn -0.7407 -0.3583 -0.5684
vn 0.2278 -0.8319 0.5061
vn -0.3375 0.2355 -0.9114
vn -0.2569 -0.1951 0.9465
vt 0.309003 0.544501
vt 0.449550 0.445782
vt 0.528610 0.537929
vt 0.372423 0.154120
vt 0.180139 0.239868
vt 0.157690 0.105367
vt 0.645747 0.092584
vt 0.710181 0.060039
vt 0.834884 0.092674
vt 0.776530 0.567918
vt 0.945948 0.565226
vt 0.877908 0.659687
vt 0.584114 0.318697
vt 0.635745 0.244552
vt 0.777950 0.310226
vt 0.765133 0.437489
vt 0.578851 0.417832
vt 0.470874 0.672597
vt 0.242931 0.656529
vt 0.116350 0.602166
vt 0.594050 0.680595
vt 0.672468 0.825797
vt 0.501776 0.811532
vt 0.365910 0.318561
vt 0.131207 0.736531
vt 0.216196 0.774553
vt 0.096909 0.809312
vt 0.224452 0.921356
vt 0.305827 0.810955
vt 0.321793 0.898166
vt 0.721918 0.688102
vt 0.439502 0.912097
vt 0.497535 0.768670
vt 0.520777 0.179542
vt 0.064670 0.191392
vt 0.033020 0.170014
vt 0.554811 0.243361
s 1
usemtl MatID_1
f 6/1/1 2/2/2 12/3/3
f 9/4/4 10/5/5 11/6/6
f 1/7/7 7/8/8 3/9/9
f 10/10/5 8/11/10 3/12/9
f 10/13/5 3/14/9 2/15/2
f 2/15/2 6/16/1 4/17/11
f 6/1/1 12/3/3 9/18/4
f 11/19/6 4/20/11 6/1/1
f 1/21/7 8/22/10 5/23/12
f 9/4/4 8/24/10 10/5/5
f 12/25/3 2/26/2 1/27/7
f 1/28/7 2/29/2 7/30/8
f 8/22/10 1/21/7 3/31/9
f 2/15/2 4/17/11 10/13/5
f 3/32/9 7/30/8 2/29/2
f 9/18/4 11/19/6 6/1/1
f 5/23/12 12/33/3 1/21/7
f 9/4/4 12/34/3 8/24/10
f 11/6/6 10/35/5 4/36/11
f 12/34/3 5/37/12 8/24/10
